<svg width="440" height="240" viewBox="0 0 440 240" fill="none" xmlns="http://www.w3.org/2000/svg">
<g clip-path="url(#clip0_6_8)">
<path d="M0 0H440V240H0V0Z" fill="white"/>
<path d="M12.8516 24.4365C12.8516 24.0173 12.7035 23.6641 12.4072 23.377C12.1156 23.0898 11.6211 22.8301 10.9238 22.5977C9.95312 22.3014 9.24447 21.9163 8.79785 21.4424C8.35579 20.9639 8.13477 20.3577 8.13477 19.624C8.13477 18.8766 8.35124 18.2637 8.78418 17.7852C9.22168 17.3066 9.82096 17.0218 10.582 16.9307V15.4336H11.6006V16.9375C12.3662 17.0423 12.9609 17.3636 13.3848 17.9014C13.8132 18.4391 14.0273 19.1751 14.0273 20.1094H12.7695C12.7695 19.4668 12.6169 18.9564 12.3115 18.5781C12.0062 18.1999 11.5938 18.0107 11.0742 18.0107C10.5319 18.0107 10.1172 18.152 9.83008 18.4346C9.54297 18.7126 9.39941 19.1022 9.39941 19.6035C9.39941 20.0684 9.5498 20.4398 9.85059 20.7178C10.1559 20.9912 10.6549 21.2419 11.3477 21.4697C12.0449 21.693 12.5872 21.9414 12.9746 22.2148C13.3665 22.4837 13.6536 22.7982 13.8359 23.1582C14.0228 23.5182 14.1162 23.9398 14.1162 24.4229C14.1162 25.193 13.8838 25.8128 13.4189 26.2822C12.9587 26.7516 12.3115 27.0296 11.4775 27.1162V28.4219H10.4658V27.1162C9.61816 27.0387 8.9528 26.738 8.46973 26.2139C7.99121 25.6852 7.75195 24.9697 7.75195 24.0674H9.0166C9.0166 24.7008 9.18294 25.1885 9.51562 25.5303C9.84831 25.8721 10.32 26.043 10.9307 26.043C11.5277 26.043 11.9971 25.8994 12.3389 25.6123C12.6807 25.3252 12.8516 24.9333 12.8516 24.4365ZM18.7852 26.1045C19.2363 26.1045 19.6305 25.9678 19.9678 25.6943C20.305 25.4209 20.4919 25.0791 20.5283 24.6689H21.7246C21.7018 25.0928 21.556 25.4961 21.2871 25.8789C21.0182 26.2617 20.6582 26.5671 20.207 26.7949C19.7604 27.0228 19.2865 27.1367 18.7852 27.1367C17.778 27.1367 16.9759 26.8018 16.3789 26.1318C15.7865 25.4574 15.4902 24.5368 15.4902 23.3701V23.1582C15.4902 22.4382 15.6224 21.7979 15.8867 21.2373C16.151 20.6768 16.5293 20.2415 17.0215 19.9316C17.5182 19.6217 18.1038 19.4668 18.7783 19.4668C19.6077 19.4668 20.2959 19.7152 20.8428 20.2119C21.3942 20.7087 21.6882 21.3535 21.7246 22.1465H20.5283C20.4919 21.668 20.3096 21.276 19.9814 20.9707C19.6579 20.6608 19.2568 20.5059 18.7783 20.5059C18.1357 20.5059 17.6367 20.7383 17.2812 21.2031C16.9303 21.6634 16.7549 22.3311 16.7549 23.2061V23.4453C16.7549 24.2975 16.9303 24.9538 17.2812 25.4141C17.6322 25.8743 18.1335 26.1045 18.7852 26.1045ZM24.5205 27H23.2559V16.5H24.5205V27ZM27.9248 27H26.6602V19.6035H27.9248V27ZM26.5576 17.6416C26.5576 17.4365 26.6191 17.2633 26.7422 17.1221C26.8698 16.9808 27.0566 16.9102 27.3027 16.9102C27.5488 16.9102 27.7357 16.9808 27.8633 17.1221C27.9909 17.2633 28.0547 17.4365 28.0547 17.6416C28.0547 17.8467 27.9909 18.0176 27.8633 18.1543C27.7357 18.291 27.5488 18.3594 27.3027 18.3594C27.0566 18.3594 26.8698 18.291 26.7422 18.1543C26.6191 18.0176 26.5576 17.8467 26.5576 17.6416ZM33.0244 27.1367C32.0218 27.1367 31.2061 26.8086 30.5771 26.1523C29.9482 25.4915 29.6338 24.6097 29.6338 23.5068V23.2744C29.6338 22.5407 29.7728 21.8867 30.0508 21.3125C30.3333 20.7337 30.7253 20.2826 31.2266 19.959C31.7324 19.6309 32.2793 19.4668 32.8672 19.4668C33.8288 19.4668 34.5762 19.7835 35.1094 20.417C35.6426 21.0505 35.9092 21.9574 35.9092 23.1377V23.6641H30.8984C30.9167 24.3932 31.1286 24.9834 31.5342 25.4346C31.9443 25.8812 32.4639 26.1045 33.0928 26.1045C33.5394 26.1045 33.9176 26.0133 34.2275 25.8311C34.5374 25.6488 34.8086 25.4072 35.041 25.1064L35.8135 25.708C35.1937 26.6605 34.264 27.1367 33.0244 27.1367ZM32.8672 20.5059C32.3568 20.5059 31.9284 20.6927 31.582 21.0664C31.2357 21.4355 31.0215 21.9551 30.9395 22.625H34.6445V22.5293C34.6081 21.8867 34.4349 21.39 34.125 21.0391C33.8151 20.6836 33.3958 20.5059 32.8672 20.5059ZM38.5752 19.6035L38.6162 20.5332C39.1813 19.8223 39.9196 19.4668 40.8311 19.4668C42.3942 19.4668 43.1826 20.3486 43.1963 22.1123V27H41.9316V22.1055C41.9271 21.5723 41.804 21.1781 41.5625 20.9229C41.3255 20.6676 40.9541 20.54 40.4482 20.54C40.0381 20.54 39.6781 20.6494 39.3682 20.8682C39.0583 21.0869 38.8167 21.374 38.6436 21.7295V27H37.3789V19.6035H38.5752ZM46.8193 17.8125V19.6035H48.2002V20.5811H46.8193V25.168C46.8193 25.4642 46.8809 25.6875 47.0039 25.8379C47.127 25.9837 47.3366 26.0566 47.6328 26.0566C47.7786 26.0566 47.9792 26.0293 48.2344 25.9746V27C47.9017 27.0911 47.5781 27.1367 47.2637 27.1367C46.6986 27.1367 46.2725 26.9658 45.9854 26.624C45.6982 26.2822 45.5547 25.7969 45.5547 25.168V20.5811H44.208V19.6035H45.5547V17.8125H46.8193Z" fill="#000088"/>
<path d="M88.9995 19.1318L89.0376 19.9951C89.5623 19.335 90.2479 19.0049 91.0942 19.0049C92.5457 19.0049 93.2778 19.8237 93.2905 21.4614V26H92.1162V21.4551C92.112 20.96 91.9977 20.5939 91.7734 20.3569C91.5534 20.12 91.2085 20.0015 90.7388 20.0015C90.3579 20.0015 90.0236 20.103 89.7358 20.3062C89.4481 20.5093 89.2238 20.7759 89.063 21.106V26H87.8887V19.1318H88.9995ZM97.9116 26.127C96.9806 26.127 96.2231 25.8223 95.6392 25.2129C95.0552 24.5993 94.7632 23.7804 94.7632 22.7563V22.5405C94.7632 21.8592 94.8923 21.252 95.1504 20.7188C95.4128 20.1813 95.7767 19.7624 96.2422 19.4619C96.7119 19.1572 97.2197 19.0049 97.7656 19.0049C98.6585 19.0049 99.3525 19.299 99.8477 19.8872C100.343 20.4754 100.59 21.3175 100.59 22.4136V22.9023H95.9375C95.9544 23.5794 96.1512 24.1274 96.5278 24.5464C96.9087 24.9611 97.3911 25.1685 97.9751 25.1685C98.3898 25.1685 98.741 25.0838 99.0288 24.9146C99.3166 24.7453 99.5684 24.521 99.7842 24.2417L100.501 24.8003C99.9259 25.6847 99.0627 26.127 97.9116 26.127ZM97.7656 19.9697C97.2917 19.9697 96.8939 20.1432 96.5723 20.4902C96.2507 20.833 96.0518 21.3154 95.9756 21.9375H99.416V21.8486C99.3822 21.252 99.2214 20.7907 98.9336 20.4648C98.6458 20.1348 98.2565 19.9697 97.7656 19.9697ZM108.036 24.3813L109.356 19.1318H110.531L108.531 26H107.579L105.91 20.7949L104.285 26H103.333L101.339 19.1318H102.507L103.859 24.2734L105.459 19.1318H106.405L108.036 24.3813Z" fill="black"/>
<path d="M335.909 22.96C335.909 21.93 336.046 20.9411 336.319 19.9932C336.597 19.0452 337.01 18.1839 337.557 17.4092C338.104 16.6344 338.671 16.0876 339.259 15.7686L339.519 16.6025C338.853 17.113 338.306 17.8923 337.878 18.9404C337.454 19.9886 337.222 21.1621 337.181 22.4609L337.174 23.042C337.174 24.8011 337.495 26.3278 338.138 27.6221C338.525 28.3968 338.985 29.0029 339.519 29.4404L339.259 30.2129C338.653 29.8757 338.074 29.3105 337.522 28.5176C336.447 26.9681 335.909 25.1156 335.909 22.96Z" fill="#009900"/>
<path d="M394.876 23.0283C394.876 24.0446 394.742 25.0199 394.473 25.9541C394.208 26.8838 393.8 27.7428 393.249 28.5312C392.702 29.3197 392.128 29.8802 391.526 30.2129L391.26 29.4404C391.962 28.9027 392.524 28.0687 392.948 26.9385C393.377 25.8037 393.595 24.5459 393.604 23.165V22.9463C393.604 21.9893 393.504 21.1006 393.304 20.2803C393.103 19.4554 392.823 18.7171 392.463 18.0654C392.107 17.4137 391.706 16.9056 391.26 16.541L391.526 15.7686C392.128 16.1012 392.7 16.6572 393.242 17.4365C393.789 18.2158 394.197 19.0749 394.466 20.0137C394.739 20.9525 394.876 21.9574 394.876 23.0283Z" fill="#009900"/>
<path d="M12.8516 84.4365C12.8516 84.0173 12.7035 83.6641 12.4072 83.377C12.1156 83.0898 11.6211 82.8301 10.9238 82.5977C9.95312 82.3014 9.24447 81.9163 8.79785 81.4424C8.35579 80.9639 8.13477 80.3577 8.13477 79.624C8.13477 78.8766 8.35124 78.2637 8.78418 77.7852C9.22168 77.3066 9.82096 77.0218 10.582 76.9307V75.4336H11.6006V76.9375C12.3662 77.0423 12.9609 77.3636 13.3848 77.9014C13.8132 78.4391 14.0273 79.1751 14.0273 80.1094H12.7695C12.7695 79.4668 12.6169 78.9564 12.3115 78.5781C12.0062 78.1999 11.5938 78.0107 11.0742 78.0107C10.5319 78.0107 10.1172 78.152 9.83008 78.4346C9.54297 78.7126 9.39941 79.1022 9.39941 79.6035C9.39941 80.0684 9.5498 80.4398 9.85059 80.7178C10.1559 80.9912 10.6549 81.2419 11.3477 81.4697C12.0449 81.693 12.5872 81.9414 12.9746 82.2148C13.3665 82.4837 13.6536 82.7982 13.8359 83.1582C14.0228 83.5182 14.1162 83.9398 14.1162 84.4229C14.1162 85.193 13.8838 85.8128 13.4189 86.2822C12.9587 86.7516 12.3115 87.0296 11.4775 87.1162V88.4219H10.4658V87.1162C9.61816 87.0387 8.9528 86.738 8.46973 86.2139C7.99121 85.6852 7.75195 84.9697 7.75195 84.0674H9.0166C9.0166 84.7008 9.18294 85.1885 9.51562 85.5303C9.84831 85.8721 10.32 86.043 10.9307 86.043C11.5277 86.043 11.9971 85.8994 12.3389 85.6123C12.6807 85.3252 12.8516 84.9333 12.8516 84.4365ZM19.3936 80.7383C19.2021 80.7064 18.9948 80.6904 18.7715 80.6904C17.9421 80.6904 17.3792 81.0436 17.083 81.75V87H15.8184V79.6035H17.0488L17.0693 80.458C17.484 79.7972 18.0719 79.4668 18.833 79.4668C19.0791 79.4668 19.266 79.4987 19.3936 79.5625V80.7383ZM23.4951 87.1367C22.4925 87.1367 21.6768 86.8086 21.0479 86.1523C20.4189 85.4915 20.1045 84.6097 20.1045 83.5068V83.2744C20.1045 82.5407 20.2435 81.8867 20.5215 81.3125C20.804 80.7337 21.196 80.2826 21.6973 79.959C22.2031 79.6309 22.75 79.4668 23.3379 79.4668C24.2995 79.4668 25.0469 79.7835 25.5801 80.417C26.1133 81.0505 26.3799 81.9574 26.3799 83.1377V83.6641H21.3691C21.3874 84.3932 21.5993 84.9834 22.0049 85.4346C22.415 85.8812 22.9346 86.1045 23.5635 86.1045C24.0101 86.1045 24.3883 86.0133 24.6982 85.8311C25.0081 85.6488 25.2793 85.4072 25.5117 85.1064L26.2842 85.708C25.6644 86.6605 24.7347 87.1367 23.4951 87.1367ZM23.3379 80.5059C22.8275 80.5059 22.3991 80.6927 22.0527 81.0664C21.7064 81.4355 21.4922 81.9551 21.4102 82.625H25.1152V82.5293C25.0788 81.8867 24.9056 81.39 24.5957 81.0391C24.2858 80.6836 23.8665 80.5059 23.3379 80.5059ZM32.1562 85.0381C32.1562 84.6963 32.0264 84.432 31.7666 84.2451C31.5114 84.0537 31.0625 83.8896 30.4199 83.7529C29.7819 83.6162 29.2738 83.4521 28.8955 83.2607C28.5218 83.0693 28.2438 82.8415 28.0615 82.5771C27.8838 82.3128 27.7949 81.9984 27.7949 81.6338C27.7949 81.0277 28.0501 80.515 28.5605 80.0957C29.0755 79.6764 29.7318 79.4668 30.5293 79.4668C31.3678 79.4668 32.0469 79.6833 32.5664 80.1162C33.0905 80.5492 33.3525 81.1029 33.3525 81.7773H32.0811C32.0811 81.431 31.9329 81.1325 31.6367 80.8818C31.3451 80.6312 30.9759 80.5059 30.5293 80.5059C30.069 80.5059 29.709 80.6061 29.4492 80.8066C29.1895 81.0072 29.0596 81.2692 29.0596 81.5928C29.0596 81.8981 29.1803 82.1283 29.4219 82.2832C29.6634 82.4382 30.0986 82.5863 30.7275 82.7275C31.361 82.8688 31.8737 83.0374 32.2656 83.2334C32.6576 83.4294 32.9469 83.6663 33.1338 83.9443C33.3252 84.2178 33.4209 84.5527 33.4209 84.9492C33.4209 85.61 33.1566 86.141 32.6279 86.542C32.0993 86.9385 31.4134 87.1367 30.5703 87.1367C29.9779 87.1367 29.4538 87.0319 28.998 86.8223C28.5423 86.6126 28.1846 86.321 27.9248 85.9473C27.6696 85.569 27.542 85.1611 27.542 84.7236H28.8066C28.8294 85.1475 28.998 85.4847 29.3125 85.7354C29.6315 85.9814 30.0508 86.1045 30.5703 86.1045C31.0488 86.1045 31.4316 86.0088 31.7188 85.8174C32.0104 85.6214 32.1562 85.3617 32.1562 85.0381ZM41.3164 83.3838C41.3164 84.5094 41.0589 85.4163 40.5439 86.1045C40.029 86.7926 39.3317 87.1367 38.4521 87.1367C37.5544 87.1367 36.848 86.8519 36.333 86.2822V89.8438H35.0684V79.6035H36.2236L36.2852 80.4238C36.8001 79.7858 37.5156 79.4668 38.4316 79.4668C39.3203 79.4668 40.0221 79.8018 40.5371 80.4717C41.0566 81.1416 41.3164 82.0736 41.3164 83.2676V83.3838ZM40.0518 83.2402C40.0518 82.4062 39.874 81.7477 39.5186 81.2646C39.1631 80.7816 38.6755 80.54 38.0557 80.54C37.29 80.54 36.7158 80.8796 36.333 81.5586V85.0928C36.7113 85.7673 37.29 86.1045 38.0693 86.1045C38.6755 86.1045 39.1562 85.8652 39.5117 85.3867C39.8717 84.9036 40.0518 84.1882 40.0518 83.2402ZM42.5947 83.2334C42.5947 82.5088 42.736 81.8571 43.0186 81.2783C43.3057 80.6995 43.7021 80.2529 44.208 79.9385C44.7184 79.624 45.2995 79.4668 45.9512 79.4668C46.9583 79.4668 47.7718 79.8154 48.3916 80.5127C49.016 81.21 49.3281 82.1374 49.3281 83.2949V83.3838C49.3281 84.1038 49.1891 84.751 48.9111 85.3252C48.6377 85.8949 48.2435 86.3392 47.7285 86.6582C47.2181 86.9772 46.6302 87.1367 45.9648 87.1367C44.9622 87.1367 44.1488 86.7881 43.5244 86.0908C42.9046 85.3936 42.5947 84.4707 42.5947 83.3223V83.2334ZM43.8662 83.3838C43.8662 84.2041 44.0553 84.8626 44.4336 85.3594C44.8164 85.8561 45.3268 86.1045 45.9648 86.1045C46.6074 86.1045 47.1178 85.8538 47.4961 85.3525C47.8743 84.8467 48.0635 84.1403 48.0635 83.2334C48.0635 82.4222 47.8698 81.766 47.4824 81.2646C47.0996 80.7588 46.5892 80.5059 45.9512 80.5059C45.3268 80.5059 44.8232 80.7542 44.4404 81.251C44.0576 81.7477 43.8662 82.4587 43.8662 83.3838ZM52.1104 79.6035L52.1514 80.5332C52.7165 79.8223 53.4548 79.4668 54.3662 79.4668C55.9294 79.4668 56.7178 80.3486 56.7314 82.1123V87H55.4668V82.1055C55.4622 81.5723 55.3392 81.1781 55.0977 80.9229C54.8607 80.6676 54.4893 80.54 53.9834 80.54C53.5732 80.54 53.2132 80.6494 52.9033 80.8682C52.5934 81.0869 52.3519 81.374 52.1787 81.7295V87H50.9141V79.6035H52.1104ZM62.9453 85.0381C62.9453 84.6963 62.8154 84.432 62.5557 84.2451C62.3005 84.0537 61.8516 83.8896 61.209 83.7529C60.571 83.6162 60.0628 83.4521 59.6846 83.2607C59.3109 83.0693 59.0329 82.8415 58.8506 82.5771C58.6729 82.3128 58.584 81.9984 58.584 81.6338C58.584 81.0277 58.8392 80.515 59.3496 80.0957C59.8646 79.6764 60.5208 79.4668 61.3184 79.4668C62.1569 79.4668 62.8359 79.6833 63.3555 80.1162C63.8796 80.5492 64.1416 81.1029 64.1416 81.7773H62.8701C62.8701 81.431 62.722 81.1325 62.4258 80.8818C62.1341 80.6312 61.765 80.5059 61.3184 80.5059C60.8581 80.5059 60.498 80.6061 60.2383 80.8066C59.9785 81.0072 59.8486 81.2692 59.8486 81.5928C59.8486 81.8981 59.9694 82.1283 60.2109 82.2832C60.4525 82.4382 60.8877 82.5863 61.5166 82.7275C62.1501 82.8688 62.6628 83.0374 63.0547 83.2334C63.4466 83.4294 63.736 83.6663 63.9229 83.9443C64.1143 84.2178 64.21 84.5527 64.21 84.9492C64.21 85.61 63.9456 86.141 63.417 86.542C62.8883 86.9385 62.2025 87.1367 61.3594 87.1367C60.7669 87.1367 60.2428 87.0319 59.7871 86.8223C59.3314 86.6126 58.9736 86.321 58.7139 85.9473C58.4587 85.569 58.3311 85.1611 58.3311 84.7236H59.5957C59.6185 85.1475 59.7871 85.4847 60.1016 85.7354C60.4206 85.9814 60.8398 86.1045 61.3594 86.1045C61.8379 86.1045 62.2207 86.0088 62.5078 85.8174C62.7995 85.6214 62.9453 85.3617 62.9453 85.0381ZM68.9268 87.1367C67.9242 87.1367 67.1084 86.8086 66.4795 86.1523C65.8506 85.4915 65.5361 84.6097 65.5361 83.5068V83.2744C65.5361 82.5407 65.6751 81.8867 65.9531 81.3125C66.2357 80.7337 66.6276 80.2826 67.1289 79.959C67.6348 79.6309 68.1816 79.4668 68.7695 79.4668C69.7311 79.4668 70.4785 79.7835 71.0117 80.417C71.5449 81.0505 71.8115 81.9574 71.8115 83.1377V83.6641H66.8008C66.819 84.3932 67.0309 84.9834 67.4365 85.4346C67.8467 85.8812 68.3662 86.1045 68.9951 86.1045C69.4417 86.1045 69.82 86.0133 70.1299 85.8311C70.4398 85.6488 70.7109 85.4072 70.9434 85.1064L71.7158 85.708C71.096 86.6605 70.1663 87.1367 68.9268 87.1367ZM68.7695 80.5059C68.2591 80.5059 67.8307 80.6927 67.4844 81.0664C67.138 81.4355 66.9238 81.9551 66.8418 82.625H70.5469V82.5293C70.5104 81.8867 70.3372 81.39 70.0273 81.0391C69.7174 80.6836 69.2982 80.5059 68.7695 80.5059Z" fill="#000088"/>
<path d="M108.852 84.4365C108.852 84.0173 108.703 83.6641 108.407 83.377C108.116 83.0898 107.621 82.8301 106.924 82.5977C105.953 82.3014 105.244 81.9163 104.798 81.4424C104.356 80.9639 104.135 80.3577 104.135 79.624C104.135 78.8766 104.351 78.2637 104.784 77.7852C105.222 77.3066 105.821 77.0218 106.582 76.9307V75.4336H107.601V76.9375C108.366 77.0423 108.961 77.3636 109.385 77.9014C109.813 78.4391 110.027 79.1751 110.027 80.1094H108.77C108.77 79.4668 108.617 78.9564 108.312 78.5781C108.006 78.1999 107.594 78.0107 107.074 78.0107C106.532 78.0107 106.117 78.152 105.83 78.4346C105.543 78.7126 105.399 79.1022 105.399 79.6035C105.399 80.0684 105.55 80.4398 105.851 80.7178C106.156 80.9912 106.655 81.2419 107.348 81.4697C108.045 81.693 108.587 81.9414 108.975 82.2148C109.367 82.4837 109.654 82.7982 109.836 83.1582C110.023 83.5182 110.116 83.9398 110.116 84.4229C110.116 85.193 109.884 85.8128 109.419 86.2822C108.959 86.7516 108.312 87.0296 107.478 87.1162V88.4219H106.466V87.1162C105.618 87.0387 104.953 86.738 104.47 86.2139C103.991 85.6852 103.752 84.9697 103.752 84.0674H105.017C105.017 84.7008 105.183 85.1885 105.516 85.5303C105.848 85.8721 106.32 86.043 106.931 86.043C107.528 86.043 107.997 85.8994 108.339 85.6123C108.681 85.3252 108.852 84.9333 108.852 84.4365ZM114.785 86.1045C115.236 86.1045 115.631 85.9678 115.968 85.6943C116.305 85.4209 116.492 85.0791 116.528 84.6689H117.725C117.702 85.0928 117.556 85.4961 117.287 85.8789C117.018 86.2617 116.658 86.5671 116.207 86.7949C115.76 87.0228 115.286 87.1367 114.785 87.1367C113.778 87.1367 112.976 86.8018 112.379 86.1318C111.786 85.4574 111.49 84.5368 111.49 83.3701V83.1582C111.49 82.4382 111.622 81.7979 111.887 81.2373C112.151 80.6768 112.529 80.2415 113.021 79.9316C113.518 79.6217 114.104 79.4668 114.778 79.4668C115.608 79.4668 116.296 79.7152 116.843 80.2119C117.394 80.7087 117.688 81.3535 117.725 82.1465H116.528C116.492 81.668 116.31 81.276 115.981 80.9707C115.658 80.6608 115.257 80.5059 114.778 80.5059C114.136 80.5059 113.637 80.7383 113.281 81.2031C112.93 81.6634 112.755 82.3311 112.755 83.2061V83.4453C112.755 84.2975 112.93 84.9538 113.281 85.4141C113.632 85.8743 114.133 86.1045 114.785 86.1045ZM120.521 87H119.256V76.5H120.521V87ZM123.925 87H122.66V79.6035H123.925V87ZM122.558 77.6416C122.558 77.4365 122.619 77.2633 122.742 77.1221C122.87 76.9808 123.057 76.9102 123.303 76.9102C123.549 76.9102 123.736 76.9808 123.863 77.1221C123.991 77.2633 124.055 77.4365 124.055 77.6416C124.055 77.8467 123.991 78.0176 123.863 78.1543C123.736 78.291 123.549 78.3594 123.303 78.3594C123.057 78.3594 122.87 78.291 122.742 78.1543C122.619 78.0176 122.558 77.8467 122.558 77.6416ZM129.024 87.1367C128.022 87.1367 127.206 86.8086 126.577 86.1523C125.948 85.4915 125.634 84.6097 125.634 83.5068V83.2744C125.634 82.5407 125.773 81.8867 126.051 81.3125C126.333 80.7337 126.725 80.2826 127.227 79.959C127.732 79.6309 128.279 79.4668 128.867 79.4668C129.829 79.4668 130.576 79.7835 131.109 80.417C131.643 81.0505 131.909 81.9574 131.909 83.1377V83.6641H126.898C126.917 84.3932 127.129 84.9834 127.534 85.4346C127.944 85.8812 128.464 86.1045 129.093 86.1045C129.539 86.1045 129.918 86.0133 130.228 85.8311C130.537 85.6488 130.809 85.4072 131.041 85.1064L131.813 85.708C131.194 86.6605 130.264 87.1367 129.024 87.1367ZM128.867 80.5059C128.357 80.5059 127.928 80.6927 127.582 81.0664C127.236 81.4355 127.021 81.9551 126.939 82.625H130.645V82.5293C130.608 81.8867 130.435 81.39 130.125 81.0391C129.815 80.6836 129.396 80.5059 128.867 80.5059ZM134.575 79.6035L134.616 80.5332C135.181 79.8223 135.92 79.4668 136.831 79.4668C138.394 79.4668 139.183 80.3486 139.196 82.1123V87H137.932V82.1055C137.927 81.5723 137.804 81.1781 137.562 80.9229C137.326 80.6676 136.954 80.54 136.448 80.54C136.038 80.54 135.678 80.6494 135.368 80.8682C135.058 81.0869 134.817 81.374 134.644 81.7295V87H133.379V79.6035H134.575ZM142.819 77.8125V79.6035H144.2V80.5811H142.819V85.168C142.819 85.4642 142.881 85.6875 143.004 85.8379C143.127 85.9837 143.337 86.0566 143.633 86.0566C143.779 86.0566 143.979 86.0293 144.234 85.9746V87C143.902 87.0911 143.578 87.1367 143.264 87.1367C142.699 87.1367 142.272 86.9658 141.985 86.624C141.698 86.2822 141.555 85.7969 141.555 85.168V80.5811H140.208V79.6035H141.555V77.8125H142.819Z" fill="#000088"/>
<path d="M176.381 87V80.5811H175.212V79.6035H176.381V78.9746C176.381 78.1497 176.616 77.5072 177.085 77.0469C177.559 76.5866 178.227 76.3564 179.088 76.3564C179.598 76.3564 180.243 76.4954 181.022 76.7734L180.811 77.8398C180.241 77.612 179.699 77.498 179.184 77.498C178.641 77.498 178.249 77.6211 178.008 77.8672C177.771 78.1087 177.652 78.4733 177.652 78.9609V79.6035H179.163V80.5811H177.652V87H176.381ZM181.651 87H180.38V79.6035H181.651V87ZM185.083 87H183.818V76.5H185.083V87ZM190.183 87.1367C189.18 87.1367 188.364 86.8086 187.735 86.1523C187.106 85.4915 186.792 84.6097 186.792 83.5068V83.2744C186.792 82.5407 186.931 81.8867 187.209 81.3125C187.492 80.7337 187.883 80.2826 188.385 79.959C188.891 79.6309 189.438 79.4668 190.025 79.4668C190.987 79.4668 191.734 79.7835 192.268 80.417C192.801 81.0505 193.067 81.9574 193.067 83.1377V83.6641H188.057C188.075 84.3932 188.287 84.9834 188.692 85.4346C189.103 85.8812 189.622 86.1045 190.251 86.1045C190.698 86.1045 191.076 86.0133 191.386 85.8311C191.696 85.6488 191.967 85.4072 192.199 85.1064L192.972 85.708C192.352 86.6605 191.422 87.1367 190.183 87.1367ZM190.025 80.5059C189.515 80.5059 189.087 80.6927 188.74 81.0664C188.394 81.4355 188.18 81.9551 188.098 82.625H191.803V82.5293C191.766 81.8867 191.593 81.39 191.283 81.0391C190.973 80.6836 190.554 80.5059 190.025 80.5059ZM198.844 85.0381C198.844 84.6963 198.714 84.432 198.454 84.2451C198.199 84.0537 197.75 83.8896 197.107 83.7529C196.469 83.6162 195.961 83.4521 195.583 83.2607C195.209 83.0693 194.931 82.8415 194.749 82.5771C194.571 82.3128 194.482 81.9984 194.482 81.6338C194.482 81.0277 194.738 80.515 195.248 80.0957C195.763 79.6764 196.419 79.4668 197.217 79.4668C198.055 79.4668 198.734 79.6833 199.254 80.1162C199.778 80.5492 200.04 81.1029 200.04 81.7773H198.769C198.769 81.431 198.62 81.1325 198.324 80.8818C198.033 80.6312 197.663 80.5059 197.217 80.5059C196.757 80.5059 196.396 80.6061 196.137 80.8066C195.877 81.0072 195.747 81.2692 195.747 81.5928C195.747 81.8981 195.868 82.1283 196.109 82.2832C196.351 82.4382 196.786 82.5863 197.415 82.7275C198.049 82.8688 198.561 83.0374 198.953 83.2334C199.345 83.4294 199.634 83.6663 199.821 83.9443C200.013 84.2178 200.108 84.5527 200.108 84.9492C200.108 85.61 199.844 86.141 199.315 86.542C198.787 86.9385 198.101 87.1367 197.258 87.1367C196.665 87.1367 196.141 87.0319 195.686 86.8223C195.23 86.6126 194.872 86.321 194.612 85.9473C194.357 85.569 194.229 85.1611 194.229 84.7236H195.494C195.517 85.1475 195.686 85.4847 196 85.7354C196.319 85.9814 196.738 86.1045 197.258 86.1045C197.736 86.1045 198.119 86.0088 198.406 85.8174C198.698 85.6214 198.844 85.3617 198.844 85.0381Z" fill="#004000"/>
<path d="M231.649 83.2402C231.649 82.1055 231.918 81.194 232.456 80.5059C232.994 79.8132 233.698 79.4668 234.568 79.4668C235.434 79.4668 236.12 79.763 236.626 80.3555V76.5H237.891V87H236.729L236.667 86.207C236.161 86.8268 235.457 87.1367 234.555 87.1367C233.698 87.1367 232.998 86.7858 232.456 86.084C231.918 85.3822 231.649 84.4661 231.649 83.3359V83.2402ZM232.914 83.3838C232.914 84.2223 233.087 84.8786 233.434 85.3525C233.78 85.8265 234.258 86.0635 234.869 86.0635C235.671 86.0635 236.257 85.7035 236.626 84.9834V81.5859C236.248 80.8887 235.667 80.54 234.883 80.54C234.263 80.54 233.78 80.7793 233.434 81.2578C233.087 81.7363 232.914 82.445 232.914 83.3838ZM239.524 83.2334C239.524 82.5088 239.666 81.8571 239.948 81.2783C240.235 80.6995 240.632 80.2529 241.138 79.9385C241.648 79.624 242.229 79.4668 242.881 79.4668C243.888 79.4668 244.701 79.8154 245.321 80.5127C245.946 81.21 246.258 82.1374 246.258 83.2949V83.3838C246.258 84.1038 246.119 84.751 245.841 85.3252C245.567 85.8949 245.173 86.3392 244.658 86.6582C244.148 86.9772 243.56 87.1367 242.895 87.1367C241.892 87.1367 241.078 86.7881 240.454 86.0908C239.834 85.3936 239.524 84.4707 239.524 83.3223V83.2334ZM240.796 83.3838C240.796 84.2041 240.985 84.8626 241.363 85.3594C241.746 85.8561 242.257 86.1045 242.895 86.1045C243.537 86.1045 244.048 85.8538 244.426 85.3525C244.804 84.8467 244.993 84.1403 244.993 83.2334C244.993 82.4222 244.799 81.766 244.412 81.2646C244.029 80.7588 243.519 80.5059 242.881 80.5059C242.257 80.5059 241.753 80.7542 241.37 81.251C240.987 81.7477 240.796 82.4587 240.796 83.3838ZM254.393 85.2568L255.814 79.6035H257.079L254.926 87H253.9L252.103 81.3945L250.353 87H249.327L247.181 79.6035H248.438L249.895 85.1406L251.617 79.6035H252.636L254.393 85.2568ZM259.567 79.6035L259.608 80.5332C260.174 79.8223 260.912 79.4668 261.823 79.4668C263.386 79.4668 264.175 80.3486 264.188 82.1123V87H262.924V82.1055C262.919 81.5723 262.796 81.1781 262.555 80.9229C262.318 80.6676 261.946 80.54 261.44 80.54C261.03 80.54 260.67 80.6494 260.36 80.8682C260.05 81.0869 259.809 81.374 259.636 81.7295V87H258.371V79.6035H259.567ZM267.47 87H266.205V76.5H267.47V87ZM269.165 83.2334C269.165 82.5088 269.306 81.8571 269.589 81.2783C269.876 80.6995 270.272 80.2529 270.778 79.9385C271.289 79.624 271.87 79.4668 272.521 79.4668C273.529 79.4668 274.342 79.8154 274.962 80.5127C275.586 81.21 275.898 82.1374 275.898 83.2949V83.3838C275.898 84.1038 275.759 84.751 275.481 85.3252C275.208 85.8949 274.814 86.3392 274.299 86.6582C273.788 86.9772 273.201 87.1367 272.535 87.1367C271.533 87.1367 270.719 86.7881 270.095 86.0908C269.475 85.3936 269.165 84.4707 269.165 83.3223V83.2334ZM270.437 83.3838C270.437 84.2041 270.626 84.8626 271.004 85.3594C271.387 85.8561 271.897 86.1045 272.535 86.1045C273.178 86.1045 273.688 85.8538 274.066 85.3525C274.445 84.8467 274.634 84.1403 274.634 83.2334C274.634 82.4222 274.44 81.766 274.053 81.2646C273.67 80.7588 273.16 80.5059 272.521 80.5059C271.897 80.5059 271.394 80.7542 271.011 81.251C270.628 81.7477 270.437 82.4587 270.437 83.3838ZM282.051 87C281.978 86.8542 281.919 86.5944 281.873 86.2207C281.285 86.8314 280.583 87.1367 279.768 87.1367C279.038 87.1367 278.439 86.9316 277.97 86.5215C277.505 86.1068 277.272 85.5827 277.272 84.9492C277.272 84.179 277.564 83.582 278.147 83.1582C278.735 82.7298 279.56 82.5156 280.622 82.5156H281.853V81.9346C281.853 81.4925 281.72 81.1416 281.456 80.8818C281.192 80.6175 280.802 80.4854 280.287 80.4854C279.836 80.4854 279.458 80.5993 279.152 80.8271C278.847 81.055 278.694 81.3307 278.694 81.6543H277.423C277.423 81.2852 277.553 80.9297 277.812 80.5879C278.077 80.2415 278.432 79.9681 278.879 79.7676C279.33 79.5671 279.825 79.4668 280.362 79.4668C281.215 79.4668 281.882 79.681 282.365 80.1094C282.848 80.5332 283.099 81.1188 283.117 81.8662V85.2705C283.117 85.9495 283.204 86.4896 283.377 86.8906V87H282.051ZM279.952 86.0361C280.349 86.0361 280.725 85.9336 281.08 85.7285C281.436 85.5234 281.693 85.2568 281.853 84.9287V83.4111H280.861C279.312 83.4111 278.537 83.8646 278.537 84.7715C278.537 85.168 278.669 85.4779 278.934 85.7012C279.198 85.9245 279.537 86.0361 279.952 86.0361ZM284.792 83.2402C284.792 82.1055 285.061 81.194 285.599 80.5059C286.136 79.8132 286.84 79.4668 287.711 79.4668C288.577 79.4668 289.263 79.763 289.769 80.3555V76.5H291.033V87H289.871L289.81 86.207C289.304 86.8268 288.6 87.1367 287.697 87.1367C286.84 87.1367 286.141 86.7858 285.599 86.084C285.061 85.3822 284.792 84.4661 284.792 83.3359V83.2402ZM286.057 83.3838C286.057 84.2223 286.23 84.8786 286.576 85.3525C286.923 85.8265 287.401 86.0635 288.012 86.0635C288.814 86.0635 289.399 85.7035 289.769 84.9834V81.5859C289.39 80.8887 288.809 80.54 288.025 80.54C287.406 80.54 286.923 80.7793 286.576 81.2578C286.23 81.7363 286.057 82.445 286.057 83.3838Z" fill="#004000"/>
<path d="M44.8516 114.437C44.8516 114.017 44.7035 113.664 44.4072 113.377C44.1156 113.09 43.6211 112.83 42.9238 112.598C41.9531 112.301 41.2445 111.916 40.7979 111.442C40.3558 110.964 40.1348 110.358 40.1348 109.624C40.1348 108.877 40.3512 108.264 40.7842 107.785C41.2217 107.307 41.821 107.022 42.582 106.931V105.434H43.6006V106.938C44.3662 107.042 44.9609 107.364 45.3848 107.901C45.8132 108.439 46.0273 109.175 46.0273 110.109H44.7695C44.7695 109.467 44.6169 108.956 44.3115 108.578C44.0062 108.2 43.5938 108.011 43.0742 108.011C42.5319 108.011 42.1172 108.152 41.8301 108.435C41.543 108.713 41.3994 109.102 41.3994 109.604C41.3994 110.068 41.5498 110.44 41.8506 110.718C42.1559 110.991 42.6549 111.242 43.3477 111.47C44.0449 111.693 44.5872 111.941 44.9746 112.215C45.3665 112.484 45.6536 112.798 45.8359 113.158C46.0228 113.518 46.1162 113.94 46.1162 114.423C46.1162 115.193 45.8838 115.813 45.4189 116.282C44.9587 116.752 44.3115 117.03 43.4775 117.116V118.422H42.4658V117.116C41.6182 117.039 40.9528 116.738 40.4697 116.214C39.9912 115.685 39.752 114.97 39.752 114.067H41.0166C41.0166 114.701 41.1829 115.188 41.5156 115.53C41.8483 115.872 42.32 116.043 42.9307 116.043C43.5277 116.043 43.9971 115.899 44.3389 115.612C44.6807 115.325 44.8516 114.933 44.8516 114.437ZM54.0664 113.384C54.0664 114.509 53.8089 115.416 53.2939 116.104C52.779 116.793 52.0817 117.137 51.2021 117.137C50.3044 117.137 49.598 116.852 49.083 116.282V119.844H47.8184V109.604H48.9736L49.0352 110.424C49.5501 109.786 50.2656 109.467 51.1816 109.467C52.0703 109.467 52.7721 109.802 53.2871 110.472C53.8066 111.142 54.0664 112.074 54.0664 113.268V113.384ZM52.8018 113.24C52.8018 112.406 52.624 111.748 52.2686 111.265C51.9131 110.782 51.4255 110.54 50.8057 110.54C50.04 110.54 49.4658 110.88 49.083 111.559V115.093C49.4613 115.767 50.04 116.104 50.8193 116.104C51.4255 116.104 51.9062 115.865 52.2617 115.387C52.6217 114.904 52.8018 114.188 52.8018 113.24ZM59.2549 110.738C59.0635 110.706 58.8561 110.69 58.6328 110.69C57.8034 110.69 57.2406 111.044 56.9443 111.75V117H55.6797V109.604H56.9102L56.9307 110.458C57.3454 109.797 57.9333 109.467 58.6943 109.467C58.9404 109.467 59.1273 109.499 59.2549 109.562V110.738ZM59.9521 113.233C59.9521 112.509 60.0934 111.857 60.376 111.278C60.6631 110.7 61.0596 110.253 61.5654 109.938C62.0758 109.624 62.6569 109.467 63.3086 109.467C64.3158 109.467 65.1292 109.815 65.749 110.513C66.3734 111.21 66.6855 112.137 66.6855 113.295V113.384C66.6855 114.104 66.5465 114.751 66.2686 115.325C65.9951 115.895 65.6009 116.339 65.0859 116.658C64.5755 116.977 63.9876 117.137 63.3223 117.137C62.3197 117.137 61.5062 116.788 60.8818 116.091C60.262 115.394 59.9521 114.471 59.9521 113.322V113.233ZM61.2236 113.384C61.2236 114.204 61.4128 114.863 61.791 115.359C62.1738 115.856 62.6842 116.104 63.3223 116.104C63.9648 116.104 64.4753 115.854 64.8535 115.353C65.2318 114.847 65.4209 114.14 65.4209 113.233C65.4209 112.422 65.2272 111.766 64.8398 111.265C64.457 110.759 63.9466 110.506 63.3086 110.506C62.6842 110.506 62.1807 110.754 61.7979 111.251C61.415 111.748 61.2236 112.459 61.2236 113.384ZM69.5771 109.604V117.854C69.5771 119.276 68.9323 119.987 67.6426 119.987C67.3646 119.987 67.1071 119.946 66.8701 119.864V118.853C67.016 118.889 67.2074 118.907 67.4443 118.907C67.7269 118.907 67.9411 118.83 68.0869 118.675C68.2373 118.524 68.3125 118.26 68.3125 117.882V109.604H69.5771ZM68.1826 107.642C68.1826 107.441 68.2441 107.27 68.3672 107.129C68.4948 106.983 68.6794 106.91 68.9209 106.91C69.167 106.91 69.3538 106.981 69.4814 107.122C69.609 107.263 69.6729 107.437 69.6729 107.642C69.6729 107.847 69.609 108.018 69.4814 108.154C69.3538 108.291 69.167 108.359 68.9209 108.359C68.6748 108.359 68.4902 108.291 68.3672 108.154C68.2441 108.018 68.1826 107.847 68.1826 107.642ZM74.6904 117.137C73.6878 117.137 72.8721 116.809 72.2432 116.152C71.6143 115.492 71.2998 114.61 71.2998 113.507V113.274C71.2998 112.541 71.4388 111.887 71.7168 111.312C71.9993 110.734 72.3913 110.283 72.8926 109.959C73.3984 109.631 73.9453 109.467 74.5332 109.467C75.4948 109.467 76.2422 109.784 76.7754 110.417C77.3086 111.05 77.5752 111.957 77.5752 113.138V113.664H72.5645C72.5827 114.393 72.7946 114.983 73.2002 115.435C73.6104 115.881 74.1299 116.104 74.7588 116.104C75.2054 116.104 75.5837 116.013 75.8936 115.831C76.2035 115.649 76.4746 115.407 76.707 115.106L77.4795 115.708C76.8597 116.66 75.93 117.137 74.6904 117.137ZM74.5332 110.506C74.0228 110.506 73.5944 110.693 73.248 111.066C72.9017 111.436 72.6875 111.955 72.6055 112.625H76.3105V112.529C76.2741 111.887 76.1009 111.39 75.791 111.039C75.4811 110.684 75.0618 110.506 74.5332 110.506ZM82.0117 116.104C82.4629 116.104 82.8571 115.968 83.1943 115.694C83.5316 115.421 83.7184 115.079 83.7549 114.669H84.9512C84.9284 115.093 84.7826 115.496 84.5137 115.879C84.2448 116.262 83.8848 116.567 83.4336 116.795C82.987 117.023 82.513 117.137 82.0117 117.137C81.0046 117.137 80.2025 116.802 79.6055 116.132C79.013 115.457 78.7168 114.537 78.7168 113.37V113.158C78.7168 112.438 78.849 111.798 79.1133 111.237C79.3776 110.677 79.7559 110.242 80.248 109.932C80.7448 109.622 81.3304 109.467 82.0049 109.467C82.8343 109.467 83.5225 109.715 84.0693 110.212C84.6208 110.709 84.9147 111.354 84.9512 112.146H83.7549C83.7184 111.668 83.5361 111.276 83.208 110.971C82.8844 110.661 82.4834 110.506 82.0049 110.506C81.3623 110.506 80.8633 110.738 80.5078 111.203C80.1569 111.663 79.9814 112.331 79.9814 113.206V113.445C79.9814 114.298 80.1569 114.954 80.5078 115.414C80.8587 115.874 81.36 116.104 82.0117 116.104ZM88.0889 107.812V109.604H89.4697V110.581H88.0889V115.168C88.0889 115.464 88.1504 115.688 88.2734 115.838C88.3965 115.984 88.6061 116.057 88.9023 116.057C89.0482 116.057 89.2487 116.029 89.5039 115.975V117C89.1712 117.091 88.8477 117.137 88.5332 117.137C87.9681 117.137 87.542 116.966 87.2549 116.624C86.9678 116.282 86.8242 115.797 86.8242 115.168V110.581H85.4775V109.604H86.8242V107.812H88.0889ZM92.5596 117H91.2471V107.047H92.5596V117ZM94.46 113.24C94.46 112.105 94.7288 111.194 95.2666 110.506C95.8044 109.813 96.5085 109.467 97.3789 109.467C98.2448 109.467 98.9307 109.763 99.4365 110.355V106.5H100.701V117H99.5391L99.4775 116.207C98.9717 116.827 98.2676 117.137 97.3652 117.137C96.5085 117.137 95.8089 116.786 95.2666 116.084C94.7288 115.382 94.46 114.466 94.46 113.336V113.24ZM95.7246 113.384C95.7246 114.222 95.8978 114.879 96.2441 115.353C96.5905 115.826 97.069 116.063 97.6797 116.063C98.4818 116.063 99.0674 115.703 99.4365 114.983V111.586C99.0583 110.889 98.4772 110.54 97.6934 110.54C97.0736 110.54 96.5905 110.779 96.2441 111.258C95.8978 111.736 95.7246 112.445 95.7246 113.384Z" fill="#000088"/>
<path d="M42.5752 136.664H41.2695V148.094H42.5752V149.133H39.998V135.625H42.5752V136.664Z" fill="#009900"/>
<path d="M149.74 171.436H144.039V170.335H149.74V171.436ZM149.74 174.272H144.039V173.179H149.74V174.272ZM156.118 172.557L151.6 170.786V169.487L157.438 172.071V173.069L151.6 175.66V174.348L156.118 172.557Z" fill="#339933"/>
<path d="M215.916 178.982L215.198 178.49C215.627 177.893 215.85 177.278 215.868 176.645V175.503H217.105V176.494C217.105 176.954 216.992 177.415 216.764 177.875C216.54 178.335 216.258 178.704 215.916 178.982Z" fill="#339933"/>
<path d="M10.876 233.028C10.876 234.045 10.7415 235.02 10.4727 235.954C10.2083 236.884 9.80046 237.743 9.24902 238.531C8.70215 239.32 8.12793 239.88 7.52637 240.213L7.25977 239.44C7.96159 238.903 8.52441 238.069 8.94824 236.938C9.37663 235.804 9.59538 234.546 9.60449 233.165V232.946C9.60449 231.989 9.50423 231.101 9.30371 230.28C9.10319 229.455 8.82292 228.717 8.46289 228.065C8.10742 227.414 7.70638 226.906 7.25977 226.541L7.52637 225.769C8.12793 226.101 8.69987 226.657 9.24219 227.437C9.78906 228.216 10.1969 229.075 10.4658 230.014C10.7393 230.952 10.876 231.957 10.876 233.028Z" fill="#009900"/>
<path d="M77.7402 21.4355H72.0391V20.335H77.7402V21.4355ZM77.7402 24.2725H72.0391V23.1787H77.7402V24.2725Z" fill="#339933"/>
<path d="M347.607 15.4336V17.5186H346.582V15.4336H347.607ZM347.484 26.5967V28.4219H346.466V26.5967H347.484ZM348.852 24.4365C348.852 24.1631 348.79 23.917 348.667 23.6982C348.544 23.4795 348.341 23.279 348.059 23.0967C347.776 22.9144 347.398 22.7458 346.924 22.5908C346.35 22.4131 345.853 22.1966 345.434 21.9414C345.019 21.6862 344.698 21.3695 344.47 20.9912C344.246 20.613 344.135 20.1549 344.135 19.6172C344.135 19.0566 344.256 18.5736 344.497 18.168C344.739 17.7624 345.08 17.4502 345.522 17.2314C345.965 17.0127 346.484 16.9033 347.081 16.9033C347.546 16.9033 347.961 16.974 348.325 17.1152C348.69 17.252 348.997 17.457 349.248 17.7305C349.503 18.0039 349.697 18.3389 349.829 18.7354C349.966 19.1318 350.034 19.5898 350.034 20.1094H348.776C348.776 19.804 348.74 19.5238 348.667 19.2686C348.594 19.0133 348.485 18.7923 348.339 18.6055C348.193 18.4141 348.015 18.2682 347.806 18.168C347.596 18.0632 347.354 18.0107 347.081 18.0107C346.698 18.0107 346.382 18.0768 346.131 18.209C345.885 18.3411 345.702 18.528 345.584 18.7695C345.465 19.0065 345.406 19.2822 345.406 19.5967C345.406 19.8883 345.465 20.1436 345.584 20.3623C345.702 20.5811 345.903 20.7793 346.186 20.957C346.473 21.1302 346.867 21.3011 347.368 21.4697C347.956 21.6566 348.455 21.8776 348.865 22.1328C349.275 22.3835 349.588 22.6934 349.802 23.0625C350.016 23.4271 350.123 23.8805 350.123 24.4229C350.123 25.0107 349.991 25.5075 349.727 25.9131C349.462 26.3141 349.091 26.6195 348.612 26.8291C348.134 27.0387 347.573 27.1436 346.931 27.1436C346.543 27.1436 346.16 27.0911 345.782 26.9863C345.404 26.8815 345.062 26.7106 344.757 26.4736C344.451 26.2321 344.208 25.9154 344.025 25.5234C343.843 25.127 343.752 24.6416 343.752 24.0674H345.023C345.023 24.4548 345.078 24.776 345.188 25.0312C345.301 25.2819 345.452 25.4824 345.639 25.6328C345.826 25.7786 346.031 25.8835 346.254 25.9473C346.482 26.0065 346.707 26.0361 346.931 26.0361C347.341 26.0361 347.687 25.9723 347.97 25.8447C348.257 25.7126 348.476 25.5257 348.626 25.2842C348.776 25.0426 348.852 24.7601 348.852 24.4365ZM354.936 19.6035V20.5742H350.937V19.6035H354.936ZM352.29 17.8057H353.555V25.168C353.555 25.4186 353.593 25.6077 353.671 25.7354C353.748 25.863 353.849 25.9473 353.972 25.9883C354.095 26.0293 354.227 26.0498 354.368 26.0498C354.473 26.0498 354.582 26.0407 354.696 26.0225C354.815 25.9997 354.904 25.9814 354.963 25.9678L354.97 27C354.869 27.0319 354.737 27.0615 354.573 27.0889C354.414 27.1208 354.22 27.1367 353.992 27.1367C353.682 27.1367 353.397 27.0752 353.138 26.9521C352.878 26.8291 352.671 26.624 352.516 26.3369C352.365 26.0452 352.29 25.6533 352.29 25.1611V17.8057ZM355.947 23.3838V23.2266C355.947 22.6934 356.025 22.1989 356.18 21.7432C356.335 21.2829 356.558 20.8841 356.85 20.5469C357.141 20.2051 357.494 19.9408 357.909 19.7539C358.324 19.5625 358.789 19.4668 359.304 19.4668C359.823 19.4668 360.29 19.5625 360.705 19.7539C361.124 19.9408 361.48 20.2051 361.771 20.5469C362.068 20.8841 362.293 21.2829 362.448 21.7432C362.603 22.1989 362.681 22.6934 362.681 23.2266V23.3838C362.681 23.917 362.603 24.4115 362.448 24.8672C362.293 25.3229 362.068 25.7217 361.771 26.0635C361.48 26.4007 361.127 26.665 360.712 26.8564C360.302 27.0433 359.837 27.1367 359.317 27.1367C358.798 27.1367 358.331 27.0433 357.916 26.8564C357.501 26.665 357.146 26.4007 356.85 26.0635C356.558 25.7217 356.335 25.3229 356.18 24.8672C356.025 24.4115 355.947 23.917 355.947 23.3838ZM357.212 23.2266V23.3838C357.212 23.7529 357.255 24.1016 357.342 24.4297C357.428 24.7533 357.558 25.0404 357.731 25.291C357.909 25.5417 358.13 25.7399 358.395 25.8857C358.659 26.027 358.966 26.0977 359.317 26.0977C359.664 26.0977 359.967 26.027 360.227 25.8857C360.491 25.7399 360.71 25.5417 360.883 25.291C361.056 25.0404 361.186 24.7533 361.272 24.4297C361.364 24.1016 361.409 23.7529 361.409 23.3838V23.2266C361.409 22.862 361.364 22.5179 361.272 22.1943C361.186 21.8662 361.054 21.5768 360.876 21.3262C360.703 21.071 360.484 20.8704 360.22 20.7246C359.96 20.5788 359.655 20.5059 359.304 20.5059C358.957 20.5059 358.652 20.5788 358.388 20.7246C358.128 20.8704 357.909 21.071 357.731 21.3262C357.558 21.5768 357.428 21.8662 357.342 22.1943C357.255 22.5179 357.212 22.862 357.212 23.2266ZM365.538 16.5V27H364.267V16.5H365.538ZM370.057 19.6035L366.83 23.0557L365.025 24.9287L364.923 23.582L366.215 22.0371L368.512 19.6035H370.057ZM368.901 27L366.263 23.4727L366.919 22.3447L370.392 27H368.901ZM374.295 27.1367C373.78 27.1367 373.313 27.0501 372.894 26.877C372.479 26.6992 372.121 26.4508 371.82 26.1318C371.524 25.8128 371.296 25.4346 371.137 24.9971C370.977 24.5596 370.897 24.0811 370.897 23.5615V23.2744C370.897 22.6729 370.986 22.1374 371.164 21.668C371.342 21.194 371.583 20.793 371.889 20.4648C372.194 20.1367 372.54 19.8883 372.928 19.7197C373.315 19.5511 373.716 19.4668 374.131 19.4668C374.66 19.4668 375.115 19.5579 375.498 19.7402C375.885 19.9225 376.202 20.1777 376.448 20.5059C376.694 20.8294 376.877 21.2122 376.995 21.6543C377.114 22.0918 377.173 22.5703 377.173 23.0898V23.6572H371.649V22.625H375.908V22.5293C375.89 22.2012 375.822 21.8822 375.703 21.5723C375.589 21.2624 375.407 21.0072 375.156 20.8066C374.906 20.6061 374.564 20.5059 374.131 20.5059C373.844 20.5059 373.579 20.5674 373.338 20.6904C373.096 20.8089 372.889 20.9867 372.716 21.2236C372.543 21.4606 372.408 21.75 372.312 22.0918C372.217 22.4336 372.169 22.8278 372.169 23.2744V23.5615C372.169 23.9124 372.217 24.2428 372.312 24.5527C372.413 24.8581 372.556 25.127 372.743 25.3594C372.935 25.5918 373.165 25.7741 373.434 25.9062C373.707 26.0384 374.017 26.1045 374.363 26.1045C374.81 26.1045 375.188 26.0133 375.498 25.8311C375.808 25.6488 376.079 25.4049 376.312 25.0996L377.077 25.708C376.918 25.9495 376.715 26.1797 376.469 26.3984C376.223 26.6172 375.92 26.7949 375.56 26.9316C375.204 27.0684 374.783 27.1367 374.295 27.1367ZM379.914 21.1826V27H378.649V19.6035H379.846L379.914 21.1826ZM379.613 23.0215L379.087 23.001C379.091 22.4951 379.167 22.028 379.312 21.5996C379.458 21.1667 379.663 20.7907 379.928 20.4717C380.192 20.1527 380.507 19.9066 380.871 19.7334C381.24 19.5557 381.648 19.4668 382.095 19.4668C382.459 19.4668 382.787 19.5169 383.079 19.6172C383.371 19.7129 383.619 19.8678 383.824 20.082C384.034 20.2962 384.193 20.5742 384.303 20.916C384.412 21.2533 384.467 21.6657 384.467 22.1533V27H383.195V22.1396C383.195 21.7523 383.138 21.4424 383.024 21.21C382.91 20.973 382.744 20.8021 382.525 20.6973C382.307 20.5879 382.038 20.5332 381.719 20.5332C381.404 20.5332 381.117 20.5993 380.857 20.7314C380.602 20.8636 380.381 21.0459 380.194 21.2783C380.012 21.5107 379.868 21.7773 379.764 22.0781C379.663 22.3743 379.613 22.6888 379.613 23.0215Z" fill="#000088"/>
<path d="M93.7402 81.4355H88.0391V80.335H93.7402V81.4355ZM93.7402 84.2725H88.0391V83.1787H93.7402V84.2725Z" fill="#339933"/>
<path d="M218.589 83.2881H215.253V82.2559H218.589V83.2881ZM224.304 82.5566L219.785 80.7861V79.4873L225.623 82.0713V83.0693L219.785 85.6602V84.3477L224.304 82.5566Z" fill="#339933"/>
<path d="M119.916 118.982L119.198 118.49C119.627 117.893 119.85 117.278 119.868 116.645V115.503H121.105V116.494C121.105 116.954 120.992 117.415 120.764 117.875C120.54 118.335 120.258 118.704 119.916 118.982Z" fill="#339933"/>
<path d="M168.729 167.259L168.586 169.774H167.704L167.711 166.5H168.729V167.259ZM171.71 169.604V177.854C171.71 179.276 171.065 179.987 169.775 179.987C169.497 179.987 169.24 179.946 169.003 179.864V178.853C169.149 178.889 169.34 178.907 169.577 178.907C169.86 178.907 170.074 178.83 170.22 178.675C170.37 178.524 170.445 178.26 170.445 177.882V169.604H171.71ZM170.315 167.642C170.315 167.441 170.377 167.27 170.5 167.129C170.628 166.983 170.812 166.91 171.054 166.91C171.3 166.91 171.487 166.981 171.614 167.122C171.742 167.263 171.806 167.437 171.806 167.642C171.806 167.847 171.742 168.018 171.614 168.154C171.487 168.291 171.3 168.359 171.054 168.359C170.808 168.359 170.623 168.291 170.5 168.154C170.377 168.018 170.315 167.847 170.315 167.642ZM178.061 175.038C178.061 174.696 177.931 174.432 177.671 174.245C177.416 174.054 176.967 173.89 176.324 173.753C175.686 173.616 175.178 173.452 174.8 173.261C174.426 173.069 174.148 172.841 173.966 172.577C173.788 172.313 173.699 171.998 173.699 171.634C173.699 171.028 173.954 170.515 174.465 170.096C174.98 169.676 175.636 169.467 176.434 169.467C177.272 169.467 177.951 169.683 178.471 170.116C178.995 170.549 179.257 171.103 179.257 171.777H177.985C177.985 171.431 177.837 171.132 177.541 170.882C177.249 170.631 176.88 170.506 176.434 170.506C175.973 170.506 175.613 170.606 175.354 170.807C175.094 171.007 174.964 171.269 174.964 171.593C174.964 171.898 175.085 172.128 175.326 172.283C175.568 172.438 176.003 172.586 176.632 172.728C177.265 172.869 177.778 173.037 178.17 173.233C178.562 173.429 178.851 173.666 179.038 173.944C179.229 174.218 179.325 174.553 179.325 174.949C179.325 175.61 179.061 176.141 178.532 176.542C178.004 176.938 177.318 177.137 176.475 177.137C175.882 177.137 175.358 177.032 174.902 176.822C174.447 176.613 174.089 176.321 173.829 175.947C173.574 175.569 173.446 175.161 173.446 174.724H174.711C174.734 175.147 174.902 175.485 175.217 175.735C175.536 175.981 175.955 176.104 176.475 176.104C176.953 176.104 177.336 176.009 177.623 175.817C177.915 175.621 178.061 175.362 178.061 175.038ZM180.638 173.233C180.638 172.509 180.779 171.857 181.062 171.278C181.349 170.7 181.745 170.253 182.251 169.938C182.761 169.624 183.342 169.467 183.994 169.467C185.001 169.467 185.815 169.815 186.435 170.513C187.059 171.21 187.371 172.137 187.371 173.295V173.384C187.371 174.104 187.232 174.751 186.954 175.325C186.681 175.895 186.286 176.339 185.771 176.658C185.261 176.977 184.673 177.137 184.008 177.137C183.005 177.137 182.192 176.788 181.567 176.091C180.948 175.394 180.638 174.471 180.638 173.322V173.233ZM181.909 173.384C181.909 174.204 182.098 174.863 182.477 175.359C182.859 175.856 183.37 176.104 184.008 176.104C184.65 176.104 185.161 175.854 185.539 175.353C185.917 174.847 186.106 174.14 186.106 173.233C186.106 172.422 185.913 171.766 185.525 171.265C185.143 170.759 184.632 170.506 183.994 170.506C183.37 170.506 182.866 170.754 182.483 171.251C182.101 171.748 181.909 172.459 181.909 173.384ZM190.153 169.604L190.194 170.533C190.759 169.822 191.498 169.467 192.409 169.467C193.972 169.467 194.761 170.349 194.774 172.112V177H193.51V172.105C193.505 171.572 193.382 171.178 193.141 170.923C192.904 170.668 192.532 170.54 192.026 170.54C191.616 170.54 191.256 170.649 190.946 170.868C190.636 171.087 190.395 171.374 190.222 171.729V177H188.957V169.604H190.153ZM196.743 167.259L196.6 169.774H195.718L195.725 166.5H196.743V167.259Z" fill="#0000FF"/>
<path d="M15.7588 230.301C15.7588 230.082 15.8226 229.9 15.9502 229.754C16.0824 229.608 16.2783 229.535 16.5381 229.535C16.7979 229.535 16.9938 229.608 17.126 229.754C17.2627 229.9 17.3311 230.082 17.3311 230.301C17.3311 230.51 17.2627 230.686 17.126 230.827C16.9938 230.968 16.7979 231.039 16.5381 231.039C16.2783 231.039 16.0824 230.968 15.9502 230.827C15.8226 230.686 15.7588 230.51 15.7588 230.301ZM15.998 238.982L15.2803 238.49C15.7087 237.893 15.932 237.278 15.9502 236.645V235.503H17.1875V236.494C17.1875 236.954 17.0736 237.415 16.8457 237.875C16.6224 238.335 16.3398 238.704 15.998 238.982Z" fill="#339933"/>
<path d="M111.273 17.0469H112.477L116.633 27.8545H115.43L111.273 17.0469ZM119.217 25.9268H123.934V27H117.897V17.0469H119.217V25.9268ZM124.897 23.2334C124.897 22.5088 125.039 21.8571 125.321 21.2783C125.608 20.6995 126.005 20.2529 126.511 19.9385C127.021 19.624 127.602 19.4668 128.254 19.4668C129.261 19.4668 130.075 19.8154 130.694 20.5127C131.319 21.21 131.631 22.1374 131.631 23.2949V23.3838C131.631 24.1038 131.492 24.751 131.214 25.3252C130.94 25.8949 130.546 26.3392 130.031 26.6582C129.521 26.9772 128.933 27.1367 128.268 27.1367C127.265 27.1367 126.451 26.7881 125.827 26.0908C125.207 25.3936 124.897 24.4707 124.897 23.3223V23.2334ZM126.169 23.3838C126.169 24.2041 126.358 24.8626 126.736 25.3594C127.119 25.8561 127.63 26.1045 128.268 26.1045C128.91 26.1045 129.421 25.8538 129.799 25.3525C130.177 24.8467 130.366 24.1403 130.366 23.2334C130.366 22.4222 130.173 21.766 129.785 21.2646C129.402 20.7588 128.892 20.5059 128.254 20.5059C127.63 20.5059 127.126 20.7542 126.743 21.251C126.36 21.7477 126.169 22.4587 126.169 23.3838ZM135.281 23.5752L134.488 24.4023V27H133.224V16.5H134.488V22.8506L135.165 22.0371L137.469 19.6035H139.007L136.129 22.6934L139.342 27H137.858L135.281 23.5752ZM144.879 27C144.806 26.8542 144.747 26.5944 144.701 26.2207C144.113 26.8314 143.411 27.1367 142.596 27.1367C141.867 27.1367 141.267 26.9316 140.798 26.5215C140.333 26.1068 140.101 25.5827 140.101 24.9492C140.101 24.179 140.392 23.582 140.976 23.1582C141.563 22.7298 142.388 22.5156 143.45 22.5156H144.681V21.9346C144.681 21.4925 144.549 21.1416 144.284 20.8818C144.02 20.6175 143.63 20.4854 143.115 20.4854C142.664 20.4854 142.286 20.5993 141.98 20.8271C141.675 21.055 141.522 21.3307 141.522 21.6543H140.251C140.251 21.2852 140.381 20.9297 140.641 20.5879C140.905 20.2415 141.26 19.9681 141.707 19.7676C142.158 19.5671 142.653 19.4668 143.19 19.4668C144.043 19.4668 144.71 19.681 145.193 20.1094C145.676 20.5332 145.927 21.1188 145.945 21.8662V25.2705C145.945 25.9495 146.032 26.4896 146.205 26.8906V27H144.879ZM142.78 26.0361C143.177 26.0361 143.553 25.9336 143.908 25.7285C144.264 25.5234 144.521 25.2568 144.681 24.9287V23.4111H143.689C142.14 23.4111 141.365 23.8646 141.365 24.7715C141.365 25.168 141.497 25.4779 141.762 25.7012C142.026 25.9245 142.366 26.0361 142.78 26.0361ZM149.302 27H148.037V16.5H149.302V27ZM152.706 27H151.441V19.6035H152.706V27ZM151.339 17.6416C151.339 17.4365 151.4 17.2633 151.523 17.1221C151.651 16.9808 151.838 16.9102 152.084 16.9102C152.33 16.9102 152.517 16.9808 152.645 17.1221C152.772 17.2633 152.836 17.4365 152.836 17.6416C152.836 17.8467 152.772 18.0176 152.645 18.1543C152.517 18.291 152.33 18.3594 152.084 18.3594C151.838 18.3594 151.651 18.291 151.523 18.1543C151.4 18.0176 151.339 17.8467 151.339 17.6416ZM159.043 25.0381C159.043 24.6963 158.913 24.432 158.653 24.2451C158.398 24.0537 157.949 23.8896 157.307 23.7529C156.669 23.6162 156.16 23.4521 155.782 23.2607C155.409 23.0693 155.131 22.8415 154.948 22.5771C154.771 22.3128 154.682 21.9984 154.682 21.6338C154.682 21.0277 154.937 20.515 155.447 20.0957C155.962 19.6764 156.618 19.4668 157.416 19.4668C158.255 19.4668 158.934 19.6833 159.453 20.1162C159.977 20.5492 160.239 21.1029 160.239 21.7773H158.968C158.968 21.431 158.82 21.1325 158.523 20.8818C158.232 20.6312 157.863 20.5059 157.416 20.5059C156.956 20.5059 156.596 20.6061 156.336 20.8066C156.076 21.0072 155.946 21.2692 155.946 21.5928C155.946 21.8981 156.067 22.1283 156.309 22.2832C156.55 22.4382 156.985 22.5863 157.614 22.7275C158.248 22.8688 158.76 23.0374 159.152 23.2334C159.544 23.4294 159.834 23.6663 160.021 23.9443C160.212 24.2178 160.308 24.5527 160.308 24.9492C160.308 25.61 160.043 26.141 159.515 26.542C158.986 26.9385 158.3 27.1367 157.457 27.1367C156.865 27.1367 156.34 27.0319 155.885 26.8223C155.429 26.6126 155.071 26.321 154.812 25.9473C154.556 25.569 154.429 25.1611 154.429 24.7236H155.693C155.716 25.1475 155.885 25.4847 156.199 25.7354C156.518 25.9814 156.938 26.1045 157.457 26.1045C157.936 26.1045 158.318 26.0088 158.605 25.8174C158.897 25.6214 159.043 25.3617 159.043 25.0381ZM165.024 27.1367C164.022 27.1367 163.206 26.8086 162.577 26.1523C161.948 25.4915 161.634 24.6097 161.634 23.5068V23.2744C161.634 22.5407 161.773 21.8867 162.051 21.3125C162.333 20.7337 162.725 20.2826 163.227 19.959C163.732 19.6309 164.279 19.4668 164.867 19.4668C165.829 19.4668 166.576 19.7835 167.109 20.417C167.643 21.0505 167.909 21.9574 167.909 23.1377V23.6641H162.898C162.917 24.3932 163.129 24.9834 163.534 25.4346C163.944 25.8812 164.464 26.1045 165.093 26.1045C165.539 26.1045 165.918 26.0133 166.228 25.8311C166.537 25.6488 166.809 25.4072 167.041 25.1064L167.813 25.708C167.194 26.6605 166.264 27.1367 165.024 27.1367ZM164.867 20.5059C164.357 20.5059 163.928 20.6927 163.582 21.0664C163.236 21.4355 163.021 21.9551 162.939 22.625H166.645V22.5293C166.608 21.8867 166.435 21.39 166.125 21.0391C165.815 20.6836 165.396 20.5059 164.867 20.5059ZM168.695 17.0469H169.898L174.055 27.8545H172.852L168.695 17.0469ZM176.639 25.9268H181.355V27H175.319V17.0469H176.639V25.9268ZM182.319 23.2334C182.319 22.5088 182.461 21.8571 182.743 21.2783C183.03 20.6995 183.427 20.2529 183.933 19.9385C184.443 19.624 185.024 19.4668 185.676 19.4668C186.683 19.4668 187.496 19.8154 188.116 20.5127C188.741 21.21 189.053 22.1374 189.053 23.2949V23.3838C189.053 24.1038 188.914 24.751 188.636 25.3252C188.362 25.8949 187.968 26.3392 187.453 26.6582C186.943 26.9772 186.355 27.1367 185.689 27.1367C184.687 27.1367 183.873 26.7881 183.249 26.0908C182.629 25.3936 182.319 24.4707 182.319 23.3223V23.2334ZM183.591 23.3838C183.591 24.2041 183.78 24.8626 184.158 25.3594C184.541 25.8561 185.051 26.1045 185.689 26.1045C186.332 26.1045 186.842 25.8538 187.221 25.3525C187.599 24.8467 187.788 24.1403 187.788 23.2334C187.788 22.4222 187.594 21.766 187.207 21.2646C186.824 20.7588 186.314 20.5059 185.676 20.5059C185.051 20.5059 184.548 20.7542 184.165 21.251C183.782 21.7477 183.591 22.4587 183.591 23.3838ZM192.703 23.5752L191.91 24.4023V27H190.646V16.5H191.91V22.8506L192.587 22.0371L194.891 19.6035H196.429L193.551 22.6934L196.764 27H195.28L192.703 23.5752ZM202.301 27C202.228 26.8542 202.169 26.5944 202.123 26.2207C201.535 26.8314 200.833 27.1367 200.018 27.1367C199.288 27.1367 198.689 26.9316 198.22 26.5215C197.755 26.1068 197.522 25.5827 197.522 24.9492C197.522 24.179 197.814 23.582 198.397 23.1582C198.985 22.7298 199.81 22.5156 200.872 22.5156H202.103V21.9346C202.103 21.4925 201.97 21.1416 201.706 20.8818C201.442 20.6175 201.052 20.4854 200.537 20.4854C200.086 20.4854 199.708 20.5993 199.402 20.8271C199.097 21.055 198.944 21.3307 198.944 21.6543H197.673C197.673 21.2852 197.803 20.9297 198.062 20.5879C198.327 20.2415 198.682 19.9681 199.129 19.7676C199.58 19.5671 200.075 19.4668 200.612 19.4668C201.465 19.4668 202.132 19.681 202.615 20.1094C203.098 20.5332 203.349 21.1188 203.367 21.8662V25.2705C203.367 25.9495 203.454 26.4896 203.627 26.8906V27H202.301ZM200.202 26.0361C200.599 26.0361 200.975 25.9336 201.33 25.7285C201.686 25.5234 201.943 25.2568 202.103 24.9287V23.4111H201.111C199.562 23.4111 198.787 23.8646 198.787 24.7715C198.787 25.168 198.919 25.4779 199.184 25.7012C199.448 25.9245 199.787 26.0361 200.202 26.0361ZM206.724 27H205.459V16.5H206.724V27ZM210.128 27H208.863V19.6035H210.128V27ZM208.761 17.6416C208.761 17.4365 208.822 17.2633 208.945 17.1221C209.073 16.9808 209.26 16.9102 209.506 16.9102C209.752 16.9102 209.939 16.9808 210.066 17.1221C210.194 17.2633 210.258 17.4365 210.258 17.6416C210.258 17.8467 210.194 18.0176 210.066 18.1543C209.939 18.291 209.752 18.3594 209.506 18.3594C209.26 18.3594 209.073 18.291 208.945 18.1543C208.822 18.0176 208.761 17.8467 208.761 17.6416ZM216.465 25.0381C216.465 24.6963 216.335 24.432 216.075 24.2451C215.82 24.0537 215.371 23.8896 214.729 23.7529C214.09 23.6162 213.582 23.4521 213.204 23.2607C212.83 23.0693 212.552 22.8415 212.37 22.5771C212.192 22.3128 212.104 21.9984 212.104 21.6338C212.104 21.0277 212.359 20.515 212.869 20.0957C213.384 19.6764 214.04 19.4668 214.838 19.4668C215.676 19.4668 216.355 19.6833 216.875 20.1162C217.399 20.5492 217.661 21.1029 217.661 21.7773H216.39C216.39 21.431 216.242 21.1325 215.945 20.8818C215.654 20.6312 215.285 20.5059 214.838 20.5059C214.378 20.5059 214.018 20.6061 213.758 20.8066C213.498 21.0072 213.368 21.2692 213.368 21.5928C213.368 21.8981 213.489 22.1283 213.73 22.2832C213.972 22.4382 214.407 22.5863 215.036 22.7275C215.67 22.8688 216.182 23.0374 216.574 23.2334C216.966 23.4294 217.256 23.6663 217.442 23.9443C217.634 24.2178 217.729 24.5527 217.729 24.9492C217.729 25.61 217.465 26.141 216.937 26.542C216.408 26.9385 215.722 27.1367 214.879 27.1367C214.286 27.1367 213.762 27.0319 213.307 26.8223C212.851 26.6126 212.493 26.321 212.233 25.9473C211.978 25.569 211.851 25.1611 211.851 24.7236H213.115C213.138 25.1475 213.307 25.4847 213.621 25.7354C213.94 25.9814 214.359 26.1045 214.879 26.1045C215.357 26.1045 215.74 26.0088 216.027 25.8174C216.319 25.6214 216.465 25.3617 216.465 25.0381ZM222.446 27.1367C221.444 27.1367 220.628 26.8086 219.999 26.1523C219.37 25.4915 219.056 24.6097 219.056 23.5068V23.2744C219.056 22.5407 219.195 21.8867 219.473 21.3125C219.755 20.7337 220.147 20.2826 220.648 19.959C221.154 19.6309 221.701 19.4668 222.289 19.4668C223.251 19.4668 223.998 19.7835 224.531 20.417C225.064 21.0505 225.331 21.9574 225.331 23.1377V23.6641H220.32C220.339 24.3932 220.55 24.9834 220.956 25.4346C221.366 25.8812 221.886 26.1045 222.515 26.1045C222.961 26.1045 223.34 26.0133 223.649 25.8311C223.959 25.6488 224.23 25.4072 224.463 25.1064L225.235 25.708C224.616 26.6605 223.686 27.1367 222.446 27.1367ZM222.289 20.5059C221.779 20.5059 221.35 20.6927 221.004 21.0664C220.658 21.4355 220.443 21.9551 220.361 22.625H224.066V22.5293C224.03 21.8867 223.857 21.39 223.547 21.0391C223.237 20.6836 222.818 20.5059 222.289 20.5059ZM232.495 24.4023H228.325L227.389 27H226.035L229.836 17.0469H230.984L234.792 27H233.445L232.495 24.4023ZM228.722 23.3223H232.105L230.41 18.667L228.722 23.3223ZM242.182 23.3838C242.182 24.5094 241.924 25.4163 241.409 26.1045C240.894 26.7926 240.197 27.1367 239.317 27.1367C238.42 27.1367 237.713 26.8519 237.198 26.2822V29.8438H235.934V19.6035H237.089L237.15 20.4238C237.665 19.7858 238.381 19.4668 239.297 19.4668C240.186 19.4668 240.887 19.8018 241.402 20.4717C241.922 21.1416 242.182 22.0736 242.182 23.2676V23.3838ZM240.917 23.2402C240.917 22.4062 240.739 21.7477 240.384 21.2646C240.028 20.7816 239.541 20.54 238.921 20.54C238.155 20.54 237.581 20.8796 237.198 21.5586V25.0928C237.576 25.7673 238.155 26.1045 238.935 26.1045C239.541 26.1045 240.021 25.8652 240.377 25.3867C240.737 24.9036 240.917 24.1882 240.917 23.2402ZM245.169 27H243.904V19.6035H245.169V27ZM243.802 17.6416C243.802 17.4365 243.863 17.2633 243.986 17.1221C244.114 16.9808 244.301 16.9102 244.547 16.9102C244.793 16.9102 244.98 16.9808 245.107 17.1221C245.235 17.2633 245.299 17.4365 245.299 17.6416C245.299 17.8467 245.235 18.0176 245.107 18.1543C244.98 18.291 244.793 18.3594 244.547 18.3594C244.301 18.3594 244.114 18.291 243.986 18.1543C243.863 18.0176 243.802 17.8467 243.802 17.6416ZM254.719 23.8418C254.596 24.8945 254.206 25.708 253.55 26.2822C252.898 26.8519 252.03 27.1367 250.945 27.1367C249.77 27.1367 248.826 26.7152 248.115 25.8721C247.409 25.029 247.056 23.901 247.056 22.4883V21.5312C247.056 20.6061 247.22 19.7926 247.548 19.0908C247.881 18.389 248.35 17.8512 248.956 17.4775C249.562 17.0993 250.264 16.9102 251.062 16.9102C252.119 16.9102 252.966 17.2064 253.604 17.7988C254.243 18.3867 254.614 19.2025 254.719 20.2461H253.399C253.285 19.4531 253.037 18.8789 252.654 18.5234C252.276 18.168 251.745 17.9902 251.062 17.9902C250.223 17.9902 249.564 18.3001 249.086 18.9199C248.612 19.5397 248.375 20.4215 248.375 21.5654V22.5293C248.375 23.6094 248.601 24.4684 249.052 25.1064C249.503 25.7445 250.134 26.0635 250.945 26.0635C251.674 26.0635 252.233 25.8994 252.62 25.5713C253.012 25.2386 253.272 24.6621 253.399 23.8418H254.719ZM257.692 27H256.428V16.5H257.692V27ZM261.097 27H259.832V19.6035H261.097V27ZM259.729 17.6416C259.729 17.4365 259.791 17.2633 259.914 17.1221C260.042 16.9808 260.229 16.9102 260.475 16.9102C260.721 16.9102 260.908 16.9808 261.035 17.1221C261.163 17.2633 261.227 17.4365 261.227 17.6416C261.227 17.8467 261.163 18.0176 261.035 18.1543C260.908 18.291 260.721 18.3594 260.475 18.3594C260.229 18.3594 260.042 18.291 259.914 18.1543C259.791 18.0176 259.729 17.8467 259.729 17.6416ZM266.196 27.1367C265.194 27.1367 264.378 26.8086 263.749 26.1523C263.12 25.4915 262.806 24.6097 262.806 23.5068V23.2744C262.806 22.5407 262.945 21.8867 263.223 21.3125C263.505 20.7337 263.897 20.2826 264.398 19.959C264.904 19.6309 265.451 19.4668 266.039 19.4668C267.001 19.4668 267.748 19.7835 268.281 20.417C268.814 21.0505 269.081 21.9574 269.081 23.1377V23.6641H264.07C264.089 24.3932 264.3 24.9834 264.706 25.4346C265.116 25.8812 265.636 26.1045 266.265 26.1045C266.711 26.1045 267.09 26.0133 267.399 25.8311C267.709 25.6488 267.98 25.4072 268.213 25.1064L268.985 25.708C268.366 26.6605 267.436 27.1367 266.196 27.1367ZM266.039 20.5059C265.529 20.5059 265.1 20.6927 264.754 21.0664C264.408 21.4355 264.193 21.9551 264.111 22.625H267.816V22.5293C267.78 21.8867 267.607 21.39 267.297 21.0391C266.987 20.6836 266.568 20.5059 266.039 20.5059ZM271.747 19.6035L271.788 20.5332C272.353 19.8223 273.091 19.4668 274.003 19.4668C275.566 19.4668 276.354 20.3486 276.368 22.1123V27H275.104V22.1055C275.099 21.5723 274.976 21.1781 274.734 20.9229C274.497 20.6676 274.126 20.54 273.62 20.54C273.21 20.54 272.85 20.6494 272.54 20.8682C272.23 21.0869 271.989 21.374 271.815 21.7295V27H270.551V19.6035H271.747ZM279.991 17.8125V19.6035H281.372V20.5811H279.991V25.168C279.991 25.4642 280.053 25.6875 280.176 25.8379C280.299 25.9837 280.508 26.0566 280.805 26.0566C280.951 26.0566 281.151 26.0293 281.406 25.9746V27C281.074 27.0911 280.75 27.1367 280.436 27.1367C279.87 27.1367 279.444 26.9658 279.157 26.624C278.87 26.2822 278.727 25.7969 278.727 25.168V20.5811H277.38V19.6035H278.727V17.8125H279.991Z" fill="#9876AA"/>
<path d="M162.589 83.2881H159.253V82.2559H162.589V83.2881ZM168.304 82.5566L163.785 80.7861V79.4873L169.623 82.0713V83.0693L163.785 85.6602V84.3477L168.304 82.5566Z" fill="#339933"/>
<path d="M72.7295 167.259L72.5859 169.774H71.7041L71.7109 166.5H72.7295V167.259ZM75.0264 177V170.581H73.8574V169.604H75.0264V168.845C75.0264 168.052 75.2383 167.439 75.6621 167.006C76.0859 166.573 76.6852 166.356 77.46 166.356C77.7516 166.356 78.041 166.395 78.3281 166.473L78.2598 167.498C78.0456 167.457 77.8177 167.437 77.5762 167.437C77.166 167.437 76.8493 167.557 76.626 167.799C76.4027 168.036 76.291 168.378 76.291 168.824V169.604H77.8701V170.581H76.291V177H75.0264ZM78.9365 173.233C78.9365 172.509 79.0778 171.857 79.3604 171.278C79.6475 170.7 80.0439 170.253 80.5498 169.938C81.0602 169.624 81.6413 169.467 82.293 169.467C83.3001 169.467 84.1136 169.815 84.7334 170.513C85.3577 171.21 85.6699 172.137 85.6699 173.295V173.384C85.6699 174.104 85.5309 174.751 85.2529 175.325C84.9795 175.895 84.5853 176.339 84.0703 176.658C83.5599 176.977 82.972 177.137 82.3066 177.137C81.304 177.137 80.4906 176.788 79.8662 176.091C79.2464 175.394 78.9365 174.471 78.9365 173.322V173.233ZM80.208 173.384C80.208 174.204 80.3971 174.863 80.7754 175.359C81.1582 175.856 81.6686 176.104 82.3066 176.104C82.9492 176.104 83.4596 175.854 83.8379 175.353C84.2161 174.847 84.4053 174.14 84.4053 173.233C84.4053 172.422 84.2116 171.766 83.8242 171.265C83.4414 170.759 82.931 170.506 82.293 170.506C81.6686 170.506 81.165 170.754 80.7822 171.251C80.3994 171.748 80.208 172.459 80.208 173.384ZM90.8311 170.738C90.6396 170.706 90.4323 170.69 90.209 170.69C89.3796 170.69 88.8167 171.044 88.5205 171.75V177H87.2559V169.604H88.4863L88.5068 170.458C88.9215 169.797 89.5094 169.467 90.2705 169.467C90.5166 169.467 90.7035 169.499 90.8311 169.562V170.738ZM93.1895 169.604L93.2236 170.424C93.766 169.786 94.4974 169.467 95.418 169.467C96.4525 169.467 97.1566 169.863 97.5303 170.656C97.7764 170.301 98.0954 170.014 98.4873 169.795C98.8838 169.576 99.3509 169.467 99.8887 169.467C101.511 169.467 102.336 170.326 102.363 172.044V177H101.099V172.119C101.099 171.59 100.978 171.196 100.736 170.937C100.495 170.672 100.089 170.54 99.5195 170.54C99.0501 170.54 98.6605 170.681 98.3506 170.964C98.0407 171.242 97.8607 171.618 97.8105 172.092V177H96.5391V172.153C96.5391 171.078 96.0127 170.54 94.96 170.54C94.1305 170.54 93.5632 170.893 93.2578 171.6V177H91.9932V169.604H93.1895ZM108.844 177C108.771 176.854 108.712 176.594 108.666 176.221C108.078 176.831 107.376 177.137 106.561 177.137C105.831 177.137 105.232 176.932 104.763 176.521C104.298 176.107 104.065 175.583 104.065 174.949C104.065 174.179 104.357 173.582 104.94 173.158C105.528 172.73 106.353 172.516 107.415 172.516H108.646V171.935C108.646 171.493 108.513 171.142 108.249 170.882C107.985 170.618 107.595 170.485 107.08 170.485C106.629 170.485 106.251 170.599 105.945 170.827C105.64 171.055 105.487 171.331 105.487 171.654H104.216C104.216 171.285 104.346 170.93 104.605 170.588C104.87 170.242 105.225 169.968 105.672 169.768C106.123 169.567 106.618 169.467 107.155 169.467C108.007 169.467 108.675 169.681 109.158 170.109C109.641 170.533 109.892 171.119 109.91 171.866V175.271C109.91 175.95 109.997 176.49 110.17 176.891V177H108.844ZM106.745 176.036C107.142 176.036 107.518 175.934 107.873 175.729C108.229 175.523 108.486 175.257 108.646 174.929V173.411H107.654C106.105 173.411 105.33 173.865 105.33 174.771C105.33 175.168 105.462 175.478 105.727 175.701C105.991 175.924 106.33 176.036 106.745 176.036ZM113.608 167.812V169.604H114.989V170.581H113.608V175.168C113.608 175.464 113.67 175.688 113.793 175.838C113.916 175.984 114.126 176.057 114.422 176.057C114.568 176.057 114.768 176.029 115.023 175.975V177C114.691 177.091 114.367 177.137 114.053 177.137C113.488 177.137 113.062 176.966 112.774 176.624C112.487 176.282 112.344 175.797 112.344 175.168V170.581H110.997V169.604H112.344V167.812H113.608ZM117.245 167.259L117.102 169.774H116.22L116.227 166.5H117.245V167.259Z" fill="#0000FF"/>
<path d="M399.759 20.3008C399.759 20.082 399.823 19.8997 399.95 19.7539C400.082 19.6081 400.278 19.5352 400.538 19.5352C400.798 19.5352 400.994 19.6081 401.126 19.7539C401.263 19.8997 401.331 20.082 401.331 20.3008C401.331 20.5104 401.263 20.6859 401.126 20.8271C400.994 20.9684 400.798 21.0391 400.538 21.0391C400.278 21.0391 400.082 20.9684 399.95 20.8271C399.823 20.6859 399.759 20.5104 399.759 20.3008ZM399.998 28.9824L399.28 28.4902C399.709 27.8932 399.932 27.278 399.95 26.6445V25.5029H401.188V26.4941C401.188 26.9544 401.074 27.4147 400.846 27.875C400.622 28.3353 400.34 28.7044 399.998 28.9824Z" fill="#339933"/>
<path d="M39.0615 195.625H41.6455V209.133H39.0615V208.094H40.3809V196.664H39.0615V195.625Z" fill="#009900"/>
<path d="M295.909 82.96C295.909 81.93 296.046 80.9411 296.319 79.9932C296.597 79.0452 297.01 78.1839 297.557 77.4092C298.104 76.6344 298.671 76.0876 299.259 75.7686L299.519 76.6025C298.853 77.113 298.306 77.8923 297.878 78.9404C297.454 79.9886 297.222 81.1621 297.181 82.4609L297.174 83.042C297.174 84.8011 297.495 86.3278 298.138 87.6221C298.525 88.3968 298.985 89.0029 299.519 89.4404L299.259 90.2129C298.653 89.8757 298.074 89.3105 297.522 88.5176C296.447 86.9681 295.909 85.1156 295.909 82.96Z" fill="#009900"/>
</g>
<defs>
<clipPath id="clip0_6_8">
<rect width="440" height="240" fill="white"/>
</clipPath>
</defs>
</svg>
